<svg xmlns="http://www.w3.org/2000/svg" width="22.99" height="17.964" viewBox="0 0 22.99 17.964"><path d="M2.421,1.8H6.053V13.2H2.421Z" transform="translate(-0.005 -0.018)" fill="#5a6c75"/><path d="M13.316,1.8h2.421V13.2H13.316Z" transform="translate(-0.005 -0.018)" fill="#5a6c75"/><path d="M19.368,1.8h1.21V13.2h-1.21Z" transform="translate(-0.005 -0.018)" fill="#5a6c75"/><path d="M7.868,1.8H9.684V13.2H7.868Z" transform="translate(-0.005 -0.018)" fill="#5a6c75"/><path d="M.39,4.413a.384.384,0,0,0,.385-.382V.782H4.054a.382.382,0,1,0,0-.764H.39A.384.384,0,0,0,.005.4V4.031A.384.384,0,0,0,.39,4.413Z" transform="translate(-0.005 -0.018)" fill="#475a61"/><path d="M22.61.018H18.947a.382.382,0,1,0,0,.764h3.278V4.031a.385.385,0,0,0,.77,0V.4A.383.383,0,0,0,22.61.018Z" transform="translate(-0.005 -0.018)" fill="#475a61"/><path d="M22.61,13.587a.383.383,0,0,0-.385.382v3.249H18.947a.382.382,0,1,0,0,.764H22.61a.383.383,0,0,0,.385-.382V13.969a.383.383,0,0,0-.385-.382Z" transform="translate(-0.005 -0.018)" fill="#475a61"/><path d="M4.054,17.218H.775V13.969a.385.385,0,0,0-.77,0V17.6a.384.384,0,0,0,.385.382H4.054a.382.382,0,1,0,0-.764Z" transform="translate(-0.005 -0.018)" fill="#475a61"/><path d="M11.043,1.834a.383.383,0,0,0-.385.382V13.343a.385.385,0,0,0,.77,0V2.216a.383.383,0,0,0-.385-.382Z" transform="translate(-0.005 -0.018)" fill="#475a61"/><path d="M17.542,1.834a.383.383,0,0,0-.386.381V13.342a.385.385,0,0,0,.77,0V2.215a.383.383,0,0,0-.385-.381Z" transform="translate(-0.005 -0.018)" fill="#475a61"/><path d="M5.778,15.4H2.222a.382.382,0,1,0,0,.764H5.778a.382.382,0,1,0,0-.764Z" transform="translate(-0.005 -0.018)" fill="#475a61"/><path d="M9.513,15.4H7.735a.382.382,0,1,0,0,.764H9.513a.382.382,0,1,0,0-.764Z" transform="translate(-0.005 -0.018)" fill="#475a61"/><path d="M11.4,15.639a.4.4,0,0,0-.035-.068.593.593,0,0,0-.048-.057.4.4,0,0,0-.544,0,.335.335,0,0,0-.084.124.259.259,0,0,0-.022.07.3.3,0,0,0-.009.076.3.3,0,0,0,.009.074.261.261,0,0,0,.022.07.331.331,0,0,0,.084.124.382.382,0,0,0,.271.113.39.39,0,0,0,.273-.113A.579.579,0,0,0,11.363,16a.4.4,0,0,0,.035-.068.388.388,0,0,0,.022-.07.428.428,0,0,0,0-.151.38.38,0,0,0-.022-.07Z" transform="translate(-0.005 -0.018)" fill="#475a61"/><path d="M15.57,15.4h-2.53a.382.382,0,1,0,0,.764h2.53a.382.382,0,1,0,0-.764Z" transform="translate(-0.005 -0.018)" fill="#475a61"/><path d="M17.9,15.639a.688.688,0,0,0-.035-.068.625.625,0,0,0-.049-.057.4.4,0,0,0-.546,0,.374.374,0,0,0-.046.057.281.281,0,0,0-.035.068.252.252,0,0,0-.022.07.293.293,0,0,0-.009.076.28.28,0,0,0,.009.074.254.254,0,0,0,.022.07.281.281,0,0,0,.035.068.359.359,0,0,0,.046.057.323.323,0,0,0,.059.048.485.485,0,0,0,.066.035.431.431,0,0,0,.147.031.42.42,0,0,0,.075-.009.349.349,0,0,0,.073-.022.316.316,0,0,0,.066-.035.32.32,0,0,0,.059-.048.372.372,0,0,0,.112-.268.465.465,0,0,0-.007-.076.38.38,0,0,0-.022-.07Z" transform="translate(-0.005 -0.018)" fill="#475a61"/><path d="M20.778,16.166a.382.382,0,1,0,0-.764H19.514a.382.382,0,1,0,0,.764Z" transform="translate(-0.005 -0.018)" fill="#475a61"/></svg>