<?xml version="1.0" encoding="UTF-8"?>
<svg width="23px" height="23px" viewBox="0 0 23 23" version="1.1" xmlns="http://www.w3.org/2000/svg" xmlns:xlink="http://www.w3.org/1999/xlink">
    <title>coupon</title>
    <defs>
        <polygon id="path-1" points="0 0 22.9998652 0 22.9998652 22.9964062 0 22.9964062"></polygon>
    </defs>
    <g id="Page-1" stroke="none" stroke-width="1" fill="none" fill-rule="evenodd">
        <g id="Thêm-khuyến-mãi" transform="translate(-31.000000, -185.000000)">
            <g id="Coupon-KM" transform="translate(20.000000, 174.000000)">
                <g id="coupon" transform="translate(11.000000, 11.000000)">
                    <g id="Group-3">
                        <mask id="mask-2" fill="white">
                            <use xlink:href="#path-1"></use>
                        </mask>
                        <g id="Clip-2"></g>
                        <path d="M22.5655156,3.49546094 L22.8682891,3.1927474 C23.043724,3.0172526 23.043724,2.73298698 22.8682891,2.55749219 C22.6930339,2.38205729 22.4085286,2.38205729 22.2330339,2.55749219 L21.9303203,2.86026562 L21.6275469,2.55749219 C21.5433333,2.47327865 21.429112,2.42602083 21.3100391,2.42602083 L20.8158984,2.42602083 L18.5214089,0.131471354 C18.4371354,0.0472578125 18.322974,0 18.203901,0 L1.61790625,0 C0.725757813,0 0,0.725757812 0,1.61790625 L0,10.0360859 C0,10.9281745 0.725757813,11.6539323 1.61790625,11.6539323 L5.5315,11.6539323 L2.89955729,14.2856354 C2.59402865,14.5911641 2.42578125,14.9976172 2.42578125,15.4297057 C2.42578125,15.8616146 2.59402865,16.2680078 2.89955729,16.5735964 L8.8521849,22.526224 C9.15777344,22.8317526 9.56416667,23 9.9963151,23 C10.4284036,23 10.8346172,22.8317526 11.1401458,22.526224 L15.5984323,18.0679375 C15.7738672,17.8925026 15.7738672,17.6081771 15.5984323,17.4327422 C15.4231771,17.2572474 15.1386719,17.2572474 14.9631771,17.4327422 L10.5049505,21.8909687 C10.368987,22.0266927 10.188401,22.1015625 9.9963151,22.1015625 C9.80422917,22.1015625 9.62334375,22.0266927 9.48761979,21.8909687 L3.53505208,15.938401 C3.39908854,15.8024375 3.32421875,15.6217917 3.32421875,15.4297057 C3.32421875,15.2373802 3.39908854,15.0567943 3.53505208,14.9210703 L15.1314245,3.32445833 L21.1240625,3.32445833 L21.2950651,3.49546094 L20.2562318,4.53429427 C20.0803177,4.45008073 19.8833203,4.40282292 19.6755417,4.40282292 C18.932474,4.40282292 18.3278854,5.00717187 18.3278854,5.75023958 C18.3278854,6.49330729 18.932474,7.09789583 19.6755417,7.09789583 C20.4186094,7.09789583 21.0231979,6.49330729 21.0231979,5.75023958 C21.0231979,5.54246094 20.9759401,5.34570312 20.891487,5.16972917 L21.9303203,4.13095573 L22.1013229,4.30195833 L22.1013229,10.2945964 L17.8220651,14.5738542 C17.6465703,14.749349 17.6465703,15.0338542 17.8220651,15.209349 C17.9973203,15.3845443 18.2818255,15.3845443 18.4572604,15.209349 L22.8682891,10.7983203 C22.9525026,10.7141068 22.9998652,10.5997057 22.9998652,10.4805729 L22.9998652,4.11574219 C22.9998652,3.99666927 22.9525026,3.88244792 22.8682891,3.79823437 L22.5655156,3.49546094 Z M8.06701042,8.06042187 C7.81922135,8.06042187 7.61755208,7.85899219 7.61755208,7.61120312 C7.61755208,7.36323437 7.81922135,7.16174479 8.06701042,7.16174479 C8.31473958,7.16174479 8.51646875,7.36323437 8.51646875,7.61120312 C8.51646875,7.8587526 8.31473958,8.06042187 8.06701042,8.06042187 Z M14.945388,2.42602083 C14.8260755,2.42602083 14.7119141,2.47351823 14.6277005,2.55773177 L9.40364583,7.78178646 C9.41065365,7.72584375 9.41490625,7.66876302 9.41490625,7.61096354 C9.41490625,6.86789583 8.81031771,6.26330729 8.06701042,6.26330729 C7.32388281,6.26330729 6.71935417,6.86789583 6.71935417,7.61096354 C6.71935417,8.35427083 7.32388281,8.95885937 8.06701042,8.95885937 C8.12475,8.95885937 8.18165104,8.95466667 8.23753385,8.94765885 L6.4299375,10.7554948 L1.61790625,10.7554948 C1.22109635,10.7554948 0.8984375,10.4326562 0.8984375,10.0360859 L0.8984375,1.61790625 C0.8984375,1.22109635 1.22109635,0.8984375 1.61790625,0.8984375 L18.017625,0.8984375 L19.5452083,2.42602083 L14.945388,2.42602083 Z M19.6755417,6.19945833 C19.4279922,6.19945833 19.2263229,5.99802865 19.2263229,5.75023958 C19.2263229,5.50245052 19.4279922,5.30102083 19.6755417,5.30102083 C19.7780234,5.30102083 19.8725391,5.33588021 19.9481276,5.39391927 C19.9600469,5.40955208 19.9726849,5.42476562 19.9869401,5.43884115 C20.0010156,5.45309635 20.0162292,5.46573437 20.031862,5.47765365 C20.089901,5.55348177 20.1247604,5.64775781 20.1247604,5.75023958 C20.1247604,5.99802865 19.9233307,6.19945833 19.6755417,6.19945833 Z" id="Fill-1" fill="#39475B" mask="url(#mask-2)"></path>
                    </g>
                    <path d="M14.677698,12.8529412 C14.8043005,12.8529412 14.9258745,12.8062352 15.0153683,12.7234249 L16.095468,11.7239883 C16.2819028,11.5514178 16.2819028,11.2716533 16.095468,11.0991416 C15.9089696,10.9268067 15.6068803,10.9268067 15.4203819,11.0991416 L14.677698,11.7863611 L12.3148964,9.60001613 C12.1284616,9.4274456 11.8261177,9.4274456 11.6398738,9.60001613 C11.4533754,9.77252777 11.4533754,10.0520567 11.6398738,10.2246272 L14.3403458,12.7234249 C14.4298396,12.8062352 14.5511591,12.8529412 14.677698,12.8529412 Z" id="Fill-4" fill="#39475B"></path>
                    <path d="M18.1412994,9.27074548 C17.9768136,9.10619498 17.7102331,9.10619498 17.5457473,9.27074548 L17.0096101,9.80668592 L16.4140019,9.21110295 L16.9501391,8.67516251 C17.1144564,8.51061201 17.1144564,8.24384925 16.9501391,8.07929874 C16.7856533,7.91497288 16.5189044,7.91497288 16.3543624,8.07929874 L15.8182252,8.61546382 L15.2226731,8.01988085 L15.7587542,7.48371577 C15.9232962,7.31916527 15.9232962,7.05262715 15.7587542,6.88807664 C15.5942684,6.7235823 15.3275195,6.7235823 15.1632021,6.88807664 L14.3291484,7.72194896 C14.2501908,7.80091074 14.2058824,7.90795281 14.2058824,8.01988085 C14.2058824,8.13152808 14.2501908,8.23857015 14.3291484,8.31753193 L16.7116937,10.7002008 C16.7939646,10.782476 16.9018997,10.8235294 17.0096101,10.8235294 C17.1173205,10.8235294 17.2252555,10.782476 17.3075265,10.7002008 L18.1412994,9.86638462 C18.3058414,9.70183411 18.3058414,9.43507135 18.1412994,9.27074548 Z" id="Fill-5" fill="#39475B"></path>
                    <path d="M13.5842194,14.6170006 C13.7946368,14.7240357 14.0519594,14.6403682 14.1592768,14.4301736 C14.2663663,14.219808 14.1826439,13.9624221 13.9722834,13.8551021 L10.7684325,12.2230159 C10.6034383,12.1390635 10.4031086,12.1706953 10.2721961,12.301611 C10.1412836,12.4324697 10.1096526,12.6328613 10.193603,12.7978595 L11.8259341,16.0017319 C11.9013926,16.1500308 12.0514547,16.2352941 12.2070451,16.2352941 C12.2723018,16.2352941 12.3386415,16.2203616 12.4007067,16.1885589 C12.6111241,16.0814668 12.6946186,15.8240809 12.5875291,15.6137153 L12.4563886,15.3563295 L13.3270678,14.4858569 L13.5842194,14.6170006 Z M12.0483201,14.5555039 L11.5525396,13.5817008 L12.5260908,14.0779494 L12.0483201,14.5555039 Z" id="Fill-6" fill="#39475B"></path>
                    <path d="M9.11917182,18.1701207 C8.93975124,18.3465513 8.93975124,18.6325735 9.11917182,18.8090041 C9.20900475,18.8969183 9.32679934,18.9411765 9.44440996,18.9411765 C9.56202058,18.9411765 9.67987648,18.8969183 9.76970941,18.8090041 L10.420063,18.1701207 C10.9580182,17.6420935 10.9580182,16.7825816 10.420063,16.2543135 C9.90890447,15.7521187 9.09304976,15.7276713 8.55147675,16.1799477 C8.53473656,16.1924123 8.51818032,16.2058403 8.50285046,16.2208941 L8.46881819,16.2543135 C8.38211255,16.3394578 8.26646415,16.3864859 8.14382534,16.3864859 C8.02094124,16.3864859 7.9054768,16.3394578 7.81852588,16.2543135 C7.6391053,16.0781238 7.6391053,15.7916198 7.81852588,15.6154301 L8.46881819,14.9768478 C8.64848406,14.8004172 8.64848406,14.514395 8.46881819,14.3380246 C8.28945893,14.1618349 7.99819174,14.1618349 7.81852588,14.3380246 L7.16817225,14.9768478 C6.63021709,15.504875 6.63021709,16.3646278 7.16817225,16.8928958 C7.42877973,17.1488105 7.77517306,17.2897141 8.14358006,17.2897141 C8.51174178,17.2897141 8.85758323,17.1490513 9.11819071,16.8938593 C9.11868127,16.8933776 9.11892655,16.8931367 9.11917182,16.8928958 C9.29859241,16.7167061 9.59028883,16.7167061 9.76970941,16.8928958 C9.85641505,16.9780401 9.90430551,17.0914254 9.90430551,17.2120967 C9.90430551,17.332768 9.85641505,17.4461532 9.76970941,17.5315384 L9.11917182,18.1701207 Z" id="Fill-7" fill="#39475B"></path>
                    <path d="M7.87343869,2.76454722 C7.64230777,2.64150464 7.34931137,2.71823242 7.21898401,2.93650453 L4.12090737,8.11741366 C3.99058001,8.33568576 4.07210666,8.61224438 4.30304546,8.73528697 C4.37759143,8.77519267 4.45866978,8.79411765 4.53872344,8.79411765 C4.70632378,8.79411765 4.86918494,8.71098076 4.95750014,8.56332966 L8.05557678,3.38242054 C8.18590414,3.16414843 8.10431345,2.88758981 7.87343869,2.76454722 Z" id="Fill-8" fill="#39475B"></path>
                    <path d="M5.41176471,4.05870328 C5.41176471,3.31278788 4.80467263,2.70588235 4.05882353,2.70588235 C3.31297443,2.70588235 2.70588235,3.31278788 2.70588235,4.05870328 C2.70588235,4.80485918 3.31273395,5.41176471 4.05882353,5.41176471 C4.80467263,5.41176471 5.41176471,4.80485918 5.41176471,4.05870328 Z M3.60768282,4.05870328 C3.60768282,3.8099646 3.81010696,3.60776297 4.05882353,3.60776297 C4.3075401,3.60776297 4.50972376,3.8099646 4.50972376,4.05870328 C4.50972376,4.30744195 4.3075401,4.50988409 4.05882353,4.50988409 C3.81010696,4.50988409 3.60768282,4.30744195 3.60768282,4.05870328 Z" id="Fill-9" fill="#39475B"></path>
                    <path d="M16.5735294,16.2352941 C16.4844157,16.2352941 16.3973765,16.271598 16.3345098,16.3345098 C16.271598,16.3973765 16.2352941,16.4845961 16.2352941,16.5735294 C16.2352941,16.6626882 16.271598,16.7499078 16.3345098,16.8127745 C16.3973765,16.8756863 16.4844157,16.9117647 16.5735294,16.9117647 C16.6625078,16.9117647 16.7498627,16.8756863 16.8127745,16.8127745 C16.8756863,16.7499078 16.9117647,16.6626882 16.9117647,16.5735294 C16.9117647,16.4845961 16.8756863,16.3973765 16.8127745,16.3345098 C16.7498627,16.271598 16.6625078,16.2352941 16.5735294,16.2352941 Z" id="Fill-10" fill="#39475B"></path>
                </g>
            </g>
        </g>
    </g>
</svg>