<?xml version="1.0" encoding="utf-8"?>
<!-- Generator: Adobe Illustrator 24.3.0, SVG Export Plug-In . SVG Version: 6.00 Build 0)  -->
<svg version="1.1" id="Layer_1" xmlns="http://www.w3.org/2000/svg" xmlns:xlink="http://www.w3.org/1999/xlink" x="0px" y="0px"
	 viewBox="0 0 250.39 71.58" style="enable-background:new 0 0 250.39 71.58;" xml:space="preserve">
<style type="text/css">
	.st0{fill:#FFFFFF;}
</style>
<path d="M105.48,20.97c-4.86,0-8.7,1.78-11.52,5.34h-0.23v-4.07H83.35v10.27c1.74,0.12,3.41,0.63,4.9,1.46c0,0,0,0,0,0l0.01,0
	c0.01,0,0.01,0,0.01,0l-1.54,1.86l0.6,0.16l1.73,0.45h0l-0.02,0.03c-0.78,1.71-1.98,3.22-3.5,4.39c-0.01,0-0.01,0.01-0.02,0.02
	c-0.66,0.55-1.4,1.01-2.18,1.37v29.31h11.07V55.93c2.82,3.06,6.53,4.59,11.13,4.59c5.25,0,9.6-1.94,13.05-5.82
	c3.3-3.73,4.95-8.26,4.95-13.57c0-5.62-1.57-10.32-4.72-14.09C115.46,22.98,111.01,20.97,105.48,20.97z M109.81,47.43
	c-1.78,1.82-3.98,2.73-6.61,2.73c-2.6,0-4.8-0.91-6.61-2.73c-1.76-1.83-2.63-4.04-2.63-6.64c0-2.67,0.88-4.91,2.63-6.71
	c1.76-1.85,3.96-2.76,6.61-2.76c2.65,0,4.86,0.92,6.64,2.76c1.76,1.8,2.64,4.04,2.64,6.71C112.48,43.39,111.59,45.61,109.81,47.43z
	 M155.3,26.17h-0.13c-1.04-1.74-2.6-3.06-4.69-3.97c-1.87-0.82-3.91-1.24-6.12-1.24c-5.45,0-9.94,1.94-13.48,5.83
	c-3.41,3.75-5.11,8.4-5.11,13.93c0,5.62,1.67,10.3,5.01,14.03c3.47,3.84,8,5.76,13.57,5.76c2.24,0,4.29-0.4,6.15-1.2
	c2.17-0.93,3.72-2.29,4.65-4.07h0.13v4h11.07V22.24H155.3V26.17z M152.69,47.46c-1.76,1.8-3.97,2.7-6.64,2.7
	c-2.58,0-4.77-0.91-6.57-2.73c-1.76-1.8-2.64-3.99-2.64-6.58c0-2.69,0.85-4.94,2.54-6.74c1.74-1.87,3.94-2.8,6.61-2.8
	c2.69,0,4.92,0.89,6.67,2.67c1.76,1.78,2.64,4.03,2.64,6.74C155.3,43.41,154.43,45.66,152.69,47.46z M202.12,24.19
	c-2.56-2.15-5.72-3.22-9.47-3.22c-4.58,0-7.93,1.74-10.06,5.21h-0.16v-3.94h-10.32v37.01h11.07V39.13c0-2.47,0.41-4.32,1.24-5.53
	c1-1.48,2.7-2.21,5.11-2.21c2.28,0,3.86,0.76,4.75,2.28c0.69,1.17,1.04,2.96,1.04,5.37v20.21h11.07V36.1c0-2.54-0.27-4.7-0.81-6.48
	C204.88,27.35,203.73,25.53,202.12,24.19z M239.33,22.24v3.94h-0.13c-1.04-1.74-2.6-3.06-4.69-3.97c-1.87-0.82-3.91-1.24-6.12-1.24
	c-5.45,0-9.94,1.94-13.48,5.83c-3.41,3.75-5.11,8.4-5.11,13.93c0,5.62,1.67,10.3,5.01,14.03c3.47,3.84,8,5.76,13.57,5.76
	c2.23,0,4.29-0.4,6.15-1.2c2.17-0.93,3.72-2.29,4.65-4.07h0.13v4h11.07V22.24H239.33z M236.72,47.46c-1.76,1.8-3.97,2.7-6.64,2.7
	c-2.58,0-4.77-0.91-6.57-2.73c-1.76-1.8-2.64-3.99-2.64-6.58c0-2.69,0.85-4.94,2.54-6.74c1.74-1.87,3.94-2.8,6.61-2.8
	c2.69,0,4.92,0.89,6.67,2.67c1.76,1.78,2.64,4.03,2.64,6.74C239.33,43.41,238.46,45.66,236.72,47.46z M20.99,42.84
	c0,1.89-0.18,3.28-0.55,4.17c-0.56,1.41-1.65,2.12-3.26,2.12c-1.41,0-2.42-0.65-3.03-1.95c-0.41-0.87-0.66-2.13-0.75-3.78v-1.97H0
	v1.97c0,3.75,0.78,6.93,2.34,9.54c1.69,2.82,4.22,4.84,7.58,6.05c2.06,0.8,4.29,1.2,6.67,1.2c5.82,0,10.46-2.16,13.93-6.48
	c1.35-1.71,2.23-3.94,2.67-6.67c0.17-1.08,0.29-2.31,0.36-3.68c0.02-0.82,0.03-2.04,0.03-3.65V9.9h-12.6V42.84z M76.64,42.56
	l-1.5-0.58c0.32-0.45,0.5-0.99,0.51-1.58l1.55,0.41c3.26,0.86,6.58-0.47,8.4-3.07l-2.61-0.67l1.71-2.08
	c-3.01-1.04-6.48-0.16-8.61,2.45l-1.02,1.25c-0.34-0.45-0.8-0.79-1.34-0.98l0.87-1.35c1.83-2.83,1.59-6.4-0.33-8.94l-1.45,2.27
	l-1.45-2.27c-1.92,2.54-2.15,6.11-0.33,8.94l0.87,1.35c-0.54,0.18-1.01,0.53-1.34,0.98l-1.02-1.25c-2.13-2.61-5.6-3.49-8.61-2.45
	l1.71,2.08l-2.61,0.67c1.82,2.61,5.15,3.94,8.4,3.07l1.55-0.41c0.01,0.59,0.2,1.13,0.51,1.58l-1.5,0.58
	c-3.14,1.22-5.05,4.24-4.99,7.43l2.5-0.99l-0.17,2.69c3.04-0.93,5.33-3.68,5.52-7.04l0.09-1.6c0.26,0.08,0.54,0.12,0.83,0.12
	s0.57-0.04,0.83-0.12l0.09,1.6c0.19,3.36,2.48,6.11,5.52,7.04L79.13,49l2.5,0.99C81.69,46.81,79.78,43.78,76.64,42.56z M72.85,48.92
	c0,0,0,0.01-0.01,0.01c-0.18,0.31-0.38,0.61-0.59,0.91c-0.8,1.1-1.75,2.02-2.81,2.74c-0.01,0.01-0.03,0.02-0.04,0.03
	c-1.58,1.09-3.39,1.75-5.25,1.97c0,0-0.03,0-0.03,0l0.15-2.41v-0.01l-2.25,0.89l0.39-0.15l-0.39,0.15v0v-0.01
	c-0.27-1.32-0.31-2.69-0.11-4.04c-1.35,0.77-2.89,1.15-4.63,1.15c-2.58,0-4.77-0.91-6.58-2.73c-1.75-1.8-2.63-4-2.63-6.58
	c0-2.69,0.84-4.94,2.54-6.74c1.12-1.2,2.43-2.01,3.93-2.44c0.83-0.24,1.73-0.36,2.68-0.36c1.84,0,3.46,0.41,4.87,1.25
	c0.47-0.07,0.96-0.11,1.43-0.11c1.52,0,2.98,0.34,4.3,0.98v0c-0.03-0.36-0.05-0.72-0.05-1.08c0-1.37,0.23-2.69,0.67-3.92
	c0.64-1.81,1.71-3.41,3.09-4.68c0,0,0.02-0.02,0.02-0.02l1.3,2.04l1.3-2.04c0,0,0,0,0,0c1.4,1.28,2.48,2.9,3.12,4.74
	c0.07,0.22,0.14,0.43,0.2,0.65h0.11v-6.89H66.53v3.94H66.4c-1.04-1.74-2.6-3.06-4.69-3.97c-0.25-0.11-0.5-0.21-0.75-0.3
	c-1.66-0.62-3.45-0.93-5.37-0.93c-5.45,0-9.94,1.94-13.48,5.82c-3.4,3.76-5.11,8.4-5.11,13.93c0,5.62,1.67,10.3,5.01,14.03
	c3.47,3.84,8,5.76,13.57,5.76c2.23,0,4.29-0.4,6.15-1.2c2.17-0.93,3.72-2.29,4.65-4.07h0.13v4H77.6V53.3
	C75.55,52.4,73.9,50.84,72.85,48.92z M56.9,11.99c-1.93,0-3.3-0.97-4.1-1.61l-1.19,1.44c1.11,0.91,2.78,1.89,5.26,1.89
	c2.34,0,4.31-0.92,4.31-3.28c0-2.64-2.72-2.84-4.47-2.96c-1.24-0.1-2.5-0.16-2.5-1.01c0-0.82,0.85-1.17,1.8-1.17
	c1.58,0,2.78,0.6,3.35,1.03l1.2-1.46c-0.82-0.56-2.5-1.29-4.5-1.29c-1.8,0-3.95,0.72-3.95,3.03c0,2.43,2.46,2.67,4.55,2.8
	c1.44,0.12,2.42,0.32,2.42,1.25C59.08,11.53,58.11,11.99,56.9,11.99z M66.55,3.85h-2.09v9.56h2.09V3.85z M79.04,11.61h-6.21V9.33
	h4.47v-1.8h-4.47V5.67h5.87V3.85h-7.97v9.56h8.3V11.61z M74.72,1.7l0.97,1.08h1.54l-1.54-2.04h-1.93L72.2,2.78h1.54L74.72,1.7z
	 M86.49,13.71c2.53,0,4.38-1.35,4.38-3.73V3.85h-2.11v6.12c0,1.26-0.97,1.93-2.27,1.93c-1.23,0-2.24-0.67-2.24-1.93V3.85h-2.11v6.12
	C82.14,12.36,84.03,13.71,86.49,13.71z M101.29,13.42h2.09V5.67h3.46V3.85h-9.02v1.82h3.47V13.42z M112.01,9.17h4.51v4.25h2.11V3.85
	h-2.11V7.4h-4.51V3.85h-2.11v9.56h2.11V9.17z M122.81,13.42h2.09V3.85h-2.09V13.42z M135.67,7.5h0.01l4.86,5.92h1.82V3.85h-2.11
	v5.93h-0.01l-4.88-5.93h-1.8v9.56h2.11V7.5z M148.66,9.17h4.51v4.25h2.11V3.85h-2.11V7.4h-4.51V3.85h-2.11v9.56h2.11V9.17z
	 M162.57,3.85l-4.44,9.56h2.21l0.86-2.02h4.42l0.88,2.02h2.3l-4.44-9.56H162.57z M161.93,9.74l1.45-3.38h0.09l1.45,3.38H161.93z
	 M163.47,1.7l0.97,1.08h1.54l-1.54-2.04h-1.93l-1.55,2.04h1.54L163.47,1.7z M173.06,13.42h2.09V5.67h3.46V3.85h-9.02v1.82h3.47
	V13.42z M194.32,12.55c0.6-0.59,0.89-1.29,0.89-2.05c0-1.11-0.6-1.99-1.71-2.37c0.7-0.37,1.2-1.1,1.2-1.92
	c0-0.54-0.22-1.04-0.6-1.44c-0.53-0.56-1.38-0.92-2.56-0.92h-5.73v9.56h5.9C193.02,13.42,193.73,13.11,194.32,12.55z M187.92,5.59
	h3.37c0.47,0,0.75,0.1,0.95,0.32c0.18,0.18,0.29,0.41,0.29,0.69c0,0.29-0.12,0.57-0.32,0.78c-0.22,0.22-0.53,0.31-0.92,0.31h-3.37
	V5.59z M187.92,11.69V9.27h3.72c0.45,0,0.79,0.15,1.05,0.41c0.21,0.22,0.34,0.5,0.34,0.81c0,0.31-0.13,0.62-0.34,0.83
	c-0.25,0.23-0.61,0.37-1.05,0.37H187.92z M201.89,3.85l-4.44,9.56h2.21l0.86-2.02h4.42l0.88,2.02h2.3l-4.44-9.56H201.89z
	 M201.24,9.74l1.45-3.38h0.09l1.45,3.38H201.24z M213.09,7.5h0.01l4.86,5.92h1.82V3.85h-2.11v5.93h-0.01l-4.88-5.93h-1.8v9.56h2.11
	V7.5z M122.81,16.58h2.09v-2.09h-2.09V16.58z M162.42,14.49v2.09h2.09v-2.09H162.42z M203.58,1.4c0,0.5-1.52,0.51-1.52,1.39
	c0,0,1.19,0,1.43,0c0-0.43,1.58-0.4,1.58-1.41c0-1.82-4.22-1.93-4.22,0.26h1.31C202.15,0.86,203.58,0.77,203.58,1.4z"/>
</svg>
